<?xml version="1.0" encoding="UTF-8"?>
<svg width="20px" height="18px" viewBox="0 0 20 18" version="1.1" xmlns="http://www.w3.org/2000/svg" xmlns:xlink="http://www.w3.org/1999/xlink">
    <!-- Generator: sketchtool 51 (57462) - http://www.bohemiancoding.com/sketch -->
    <title>A0EF2B27-A2D5-442D-876D-5B18740F4979</title>
    <desc>Created with sketchtool.</desc>
    <defs></defs>
    <g id="Page-1" stroke="none" stroke-width="1" fill="none" fill-rule="evenodd">
        <g id="Form-component" transform="translate(-321.000000, -881.000000)" fill="#000000" fill-rule="nonzero">
            <g id="Icons" transform="translate(79.000000, 877.000000)">
                <g id="pen" transform="translate(242.000000, 4.000000)">
                    <path d="M2.81975421,10.6973911 L14.4008213,0.427842326 C14.9981645,-0.10185374 15.9011049,-0.0319626487 16.4087518,0.583002818 L19.4589502,4.27802525 C19.9623608,4.88785889 19.8740419,5.78752061 19.2625997,6.28813365 L6.83562037,16.462616 C6.37533853,16.8394678 5.5805689,17.1483818 4.98794326,17.1806404 L0.887869623,17.4038211 C0.318919471,17.4347909 -0.0651447351,16.911687 0.140724061,16.3771444 L1.71522495,12.2889201 C1.91811573,11.76211 2.3966602,11.0725711 2.81975421,10.6973911 Z M4.92582569,16.0394726 C5.27595103,16.0204141 5.83894895,15.801586 6.11162367,15.5783359 L18.538603,5.40385359 C18.6604919,5.3040581 18.6778684,5.12705136 18.5775921,5.00557618 L15.5273937,1.31055375 C15.4317704,1.19471525 15.2724608,1.18238407 15.1590735,1.28293058 L3.57800649,11.5524794 C3.2916689,11.8063902 2.91886316,12.3435692 2.78172137,12.6996607 L1.42200312,16.2301974 L4.92582569,16.0394726 Z" id="Path-14"></path>
                    <polygon id="Path-15" points="11.7887868 3.78077964 12.6637727 3.04557748 16.5988646 7.72884681 15.7238787 8.46404897"></polygon>
                </g>
            </g>
        </g>
    </g>
</svg>