<?xml version="1.0" encoding="UTF-8"?>
<svg width="24px" height="24px" viewBox="0 0 24 24" version="1.1" xmlns="http://www.w3.org/2000/svg" xmlns:xlink="http://www.w3.org/1999/xlink">
    <!-- Generator: sketchtool 51 (57462) - http://www.bohemiancoding.com/sketch -->
    <title>0DC9D3F4-A62E-4F9B-9357-F7746512A9B1</title>
    <desc>Created with sketchtool.</desc>
    <defs></defs>
    <g id="Page-1" stroke="none" stroke-width="1" fill="none" fill-rule="evenodd">
        <g id="Form-component" transform="translate(-79.000000, -877.000000)" fill="#000000" fill-rule="nonzero">
            <g id="Icons" transform="translate(79.000000, 877.000000)">
                <g id="add">
                    <path d="M10.4761905,0.686596472 C10.4761905,0.307399711 10.9452255,1.52455042e-16 11.5238095,0 C12.1023935,-1.52455042e-16 12.5714286,0.307399711 12.5714286,0.686596472 L12.5714286,22.3610226 C12.5714286,22.7402193 12.1023935,23.047619 11.5238095,23.047619 C10.9452255,23.047619 10.4761905,22.7402193 10.4761905,22.3610226 L10.4761905,0.686596472 Z" id="Path-3"></path>
                    <path d="M0.670430177,12.5714286 C0.300161815,12.5714286 1.26535593e-15,12.1023935 0,11.5238095 C-1.26535593e-15,10.9452255 0.300161815,10.4761905 0.670430177,10.4761905 L22.3771889,10.4761905 C22.7474572,10.4761905 23.047619,10.9452255 23.047619,11.5238095 C23.047619,12.1023935 22.7474572,12.5714286 22.3771889,12.5714286 L0.670430177,12.5714286 Z" id="Path-3"></path>
                </g>
            </g>
        </g>
    </g>
</svg>