<?xml version="1.0" encoding="UTF-8"?>
<svg width="22px" height="21px" viewBox="0 0 22 21" version="1.1" xmlns="http://www.w3.org/2000/svg" xmlns:xlink="http://www.w3.org/1999/xlink">
    <!-- Generator: sketchtool 51 (57462) - http://www.bohemiancoding.com/sketch -->
    <title>5F9BFA94-C23F-4141-8A52-7D85BFC3F254</title>
    <desc>Created with sketchtool.</desc>
    <defs></defs>
    <g id="Page-1" stroke="none" stroke-width="1" fill="none" fill-rule="evenodd">
        <g id="Form-component" transform="translate(-199.000000, -880.000000)" fill="#E54D42" fill-rule="nonzero">
            <g id="Icons" transform="translate(79.000000, 877.000000)">
                <g id="heart-filled" transform="translate(120.000000, 3.000000)">
                    <path d="M15.5,0.2 C19.0308111,0.2 21.8,3.03072647 21.8,6.62222222 C21.8,7.89594882 21.4710968,9.12333479 20.8204404,10.3672783 C19.6308669,12.6415389 18.039223,14.3184632 12.9938813,19.0002353 L12.4249646,19.5276494 C11.6328508,20.2619784 10.3680135,20.2627796 9.57503538,19.5276494 L9.00583812,18.9999751 C3.96077705,14.3184632 2.36913307,12.6415389 1.17955956,10.3672783 C0.528903155,9.12333479 0.2,7.89594882 0.2,6.62222222 C0.2,3.03072647 2.96918894,0.2 6.5,0.2 C8.15645567,0.2 9.77768652,0.857379022 11,1.97656021 C12.2223135,0.857379022 13.8435443,0.2 15.5,0.2 Z" id="Shape"></path>
                </g>
            </g>
        </g>
    </g>
</svg>