<?xml version="1.0" encoding="UTF-8"?>
<svg width="22px" height="21px" viewBox="0 0 22 21" version="1.1" xmlns="http://www.w3.org/2000/svg" xmlns:xlink="http://www.w3.org/1999/xlink">
    <!-- Generator: sketchtool 51 (57462) - http://www.bohemiancoding.com/sketch -->
    <title>EED29B39-9B03-41C3-8B55-B622972037F9</title>
    <desc>Created with sketchtool.</desc>
    <defs></defs>
    <g id="Page-1" stroke="none" stroke-width="1" fill="none" fill-rule="evenodd">
        <g id="Form-component" transform="translate(-140.000000, -880.000000)" fill="#000000" fill-rule="nonzero">
            <g id="Icons" transform="translate(79.000000, 877.000000)">
                <g id="heart" transform="translate(62.000000, 4.000000)">
                    <path d="M14.5,-0.8 C18.0308111,-0.8 20.8,2.03072647 20.8,5.62222222 C20.8,6.89594882 20.4710968,8.12333479 19.8204404,9.36727829 C18.6308669,11.6415389 17.039223,13.3184632 11.9938813,18.0002353 L11.4249646,18.5276494 C10.6328508,19.2619784 9.3680135,19.2627796 8.57503538,18.5276494 L8.00583812,17.9999751 C2.96077705,13.3184632 1.36913307,11.6415389 0.17955956,9.36727829 C-0.471096845,8.12333479 -0.8,6.89594882 -0.8,5.62222222 C-0.8,2.03072647 1.96918894,-0.8 5.5,-0.8 C7.15645567,-0.8 8.77768652,-0.142620978 10,0.976560214 C11.2223135,-0.142620978 12.8435443,-0.8 14.5,-0.8 Z M9.38632446,2.6445607 C8.42761141,1.49820963 6.97189389,0.8 5.5,0.8 C2.86081106,0.8 0.8,2.90660687 0.8,5.62222222 C0.8,6.62532346 1.0615633,7.60141359 1.59732688,8.6257017 C2.66522246,10.667335 4.21037539,12.2952772 9.09388133,16.8268758 L9.66279804,17.35429 C9.84183433,17.5202655 10.158382,17.520065 10.337202,17.35429 L10.9058381,16.827136 C15.7896246,12.2952772 17.3347775,10.667335 18.4026731,8.6257017 C18.9384367,7.60141359 19.2,6.62532346 19.2,5.62222222 C19.2,2.90660687 17.1391889,0.8 14.5,0.8 C13.0281061,0.8 11.5723886,1.49820963 10.6136755,2.6445607 L10,3.37834399 L9.38632446,2.6445607 Z" id="Shape"></path>
                </g>
            </g>
        </g>
    </g>
</svg>