<?xml version="1.0" encoding="UTF-8"?>
<svg width="20px" height="20px" viewBox="0 0 20 20" version="1.1" xmlns="http://www.w3.org/2000/svg" xmlns:xlink="http://www.w3.org/1999/xlink">
    <!-- Generator: sketchtool 51 (57462) - http://www.bohemiancoding.com/sketch -->
    <title>3A481FCD-21B1-47C7-9414-61BF0D5DD25B</title>
    <desc>Created with sketchtool.</desc>
    <defs></defs>
    <g id="Page-1" stroke="none" stroke-width="1" fill="none" fill-rule="evenodd">
        <g id="Form-component" transform="translate(-262.000000, -880.000000)" fill="#000000" fill-rule="nonzero">
            <g id="Icons" transform="translate(79.000000, 877.000000)">
                <g id="trash-bin" transform="translate(183.000000, 3.000000)">
                    <path d="M4.19148936,4.21428571 L4.19148936,18.1807022 C4.19148936,18.5146787 4.45779373,18.7857143 4.78732987,18.7857143 L15.2126701,18.7857143 C15.5405417,18.7857143 15.8085106,18.5132442 15.8085106,18.1807022 L15.8085106,4.21428571 L4.19148936,4.21428571 Z M3,3 L17,3 L17,18.1807022 C17,19.1854726 16.1970155,20 15.2126701,20 L4.78732987,20 C3.80021484,20 3,19.1857819 3,18.1807022 L3,3 Z" id="Rectangle-14"></path>
                    <path d="M0.625,4 C0.279822031,4 0,3.77614237 0,3.5 C0,3.22385763 0.279822031,3 0.625,3 L19.375,3 C19.720178,3 20,3.22385763 20,3.5 C20,3.77614237 19.720178,4 19.375,4 L0.625,4 Z" id="Path-19"></path>
                    <path d="M8.2173913,2.76923077 L12.7826087,2.76923077 L12.7826087,2 C12.7826087,1.57636615 12.4411042,1.23076923 12.0221492,1.23076923 L8.97785079,1.23076923 C8.55849945,1.23076923 8.2173913,1.57557198 8.2173913,2 L8.2173913,2.76923077 Z M7,2 C7,0.8954305 7.88655484,0 8.97785079,0 L12.0221492,0 C13.114486,0 14,0.897678077 14,2 L14,4 L7,4 L7,2 Z" id="Rectangle-15"></path>
                    <path d="M6,6.62920568 C6,6.28170498 6.22385763,6 6.5,6 C6.77614237,6 7,6.28170498 7,6.62920568 L7,16.3707943 C7,16.718295 6.77614237,17 6.5,17 C6.22385763,17 6,16.718295 6,16.3707943 L6,6.62920568 Z" id="Path-20"></path>
                    <path d="M10,7.60080109 C10,7.26898781 10.2238576,7 10.5,7 C10.7761424,7 11,7.26898781 11,7.60080109 L11,15.3991989 C11,15.7310122 10.7761424,16 10.5,16 C10.2238576,16 10,15.7310122 10,15.3991989 L10,7.60080109 Z" id="Path-20"></path>
                    <path d="M13,6.62920568 C13,6.28170498 13.2238576,6 13.5,6 C13.7761424,6 14,6.28170498 14,6.62920568 L14,16.3707943 C14,16.718295 13.7761424,17 13.5,17 C13.2238576,17 13,16.718295 13,16.3707943 L13,6.62920568 Z" id="Path-20"></path>
                </g>
            </g>
        </g>
    </g>
</svg>